<mxfile host="Electron" modified="2023-10-27T09:01:55.169Z" agent="Mozilla/5.0 (Macintosh; Intel Mac OS X 10_15_7) AppleWebKit/537.36 (KHTML, like Gecko) draw.io/21.6.1 Chrome/112.0.5615.204 Electron/24.6.1 Safari/537.36" etag="fpg6DIEGtC1RYb5ev4Co" version="21.6.1" type="device">
  <diagram name="Page-1" id="KHUAOFqet-5Jrn2wCoYW">
    <mxGraphModel dx="821" dy="618" grid="1" gridSize="10" guides="1" tooltips="1" connect="1" arrows="1" fold="1" page="1" pageScale="1" pageWidth="850" pageHeight="1100" math="0" shadow="0">
      <root>
        <mxCell id="0" />
        <mxCell id="1" parent="0" />
        <mxCell id="L_ACeXXDgQ1vlwXF_tQs-6" style="edgeStyle=orthogonalEdgeStyle;rounded=0;orthogonalLoop=1;jettySize=auto;html=1;entryX=0;entryY=0.5;entryDx=0;entryDy=0;" edge="1" parent="1" source="L_ACeXXDgQ1vlwXF_tQs-2" target="L_ACeXXDgQ1vlwXF_tQs-7">
          <mxGeometry relative="1" as="geometry">
            <mxPoint x="270" y="370" as="targetPoint" />
          </mxGeometry>
        </mxCell>
        <mxCell id="L_ACeXXDgQ1vlwXF_tQs-2" value="kubectl" style="shape=umlActor;verticalLabelPosition=bottom;verticalAlign=top;html=1;outlineConnect=0;" vertex="1" parent="1">
          <mxGeometry x="120" y="340" width="30" height="60" as="geometry" />
        </mxCell>
        <mxCell id="L_ACeXXDgQ1vlwXF_tQs-3" value="deploy.yaml" style="shape=note;whiteSpace=wrap;html=1;backgroundOutline=1;darkOpacity=0.05;" vertex="1" parent="1">
          <mxGeometry x="95" y="170" width="80" height="80" as="geometry" />
        </mxCell>
        <mxCell id="L_ACeXXDgQ1vlwXF_tQs-5" value="kubectl apply -f deploy.yaml" style="text;html=1;align=center;verticalAlign=middle;resizable=0;points=[];autosize=1;strokeColor=none;fillColor=none;" vertex="1" parent="1">
          <mxGeometry x="60" y="260" width="170" height="30" as="geometry" />
        </mxCell>
        <mxCell id="L_ACeXXDgQ1vlwXF_tQs-7" value="forty&lt;br&gt;LB" style="rounded=1;whiteSpace=wrap;html=1;" vertex="1" parent="1">
          <mxGeometry x="280" y="340" width="70" height="60" as="geometry" />
        </mxCell>
        <mxCell id="L_ACeXXDgQ1vlwXF_tQs-8" value="Master" style="rounded=1;whiteSpace=wrap;html=1;" vertex="1" parent="1">
          <mxGeometry x="425" y="330" width="120" height="60" as="geometry" />
        </mxCell>
        <mxCell id="L_ACeXXDgQ1vlwXF_tQs-9" value="Master" style="rounded=1;whiteSpace=wrap;html=1;" vertex="1" parent="1">
          <mxGeometry x="435" y="340" width="120" height="60" as="geometry" />
        </mxCell>
        <mxCell id="L_ACeXXDgQ1vlwXF_tQs-10" value="Master" style="rounded=1;whiteSpace=wrap;html=1;verticalAlign=bottom;" vertex="1" parent="1">
          <mxGeometry x="445" y="350" width="345" height="330" as="geometry" />
        </mxCell>
        <mxCell id="L_ACeXXDgQ1vlwXF_tQs-15" style="edgeStyle=orthogonalEdgeStyle;rounded=0;orthogonalLoop=1;jettySize=auto;html=1;entryX=0.5;entryY=0;entryDx=0;entryDy=0;entryPerimeter=0;" edge="1" parent="1" source="L_ACeXXDgQ1vlwXF_tQs-12" target="L_ACeXXDgQ1vlwXF_tQs-14">
          <mxGeometry relative="1" as="geometry">
            <Array as="points">
              <mxPoint x="505" y="460" />
              <mxPoint x="505" y="460" />
            </Array>
          </mxGeometry>
        </mxCell>
        <mxCell id="L_ACeXXDgQ1vlwXF_tQs-16" style="edgeStyle=orthogonalEdgeStyle;rounded=0;orthogonalLoop=1;jettySize=auto;html=1;dashed=1;startArrow=classic;startFill=1;" edge="1" parent="1" source="L_ACeXXDgQ1vlwXF_tQs-12" target="L_ACeXXDgQ1vlwXF_tQs-13">
          <mxGeometry relative="1" as="geometry" />
        </mxCell>
        <mxCell id="L_ACeXXDgQ1vlwXF_tQs-12" value="api-server" style="ellipse;whiteSpace=wrap;html=1;aspect=fixed;" vertex="1" parent="1">
          <mxGeometry x="465" y="370" width="80" height="80" as="geometry" />
        </mxCell>
        <mxCell id="L_ACeXXDgQ1vlwXF_tQs-11" style="edgeStyle=orthogonalEdgeStyle;rounded=0;orthogonalLoop=1;jettySize=auto;html=1;entryX=0;entryY=0.5;entryDx=0;entryDy=0;" edge="1" parent="1" source="L_ACeXXDgQ1vlwXF_tQs-7" target="L_ACeXXDgQ1vlwXF_tQs-12">
          <mxGeometry relative="1" as="geometry">
            <Array as="points">
              <mxPoint x="400" y="370" />
              <mxPoint x="400" y="410" />
            </Array>
          </mxGeometry>
        </mxCell>
        <mxCell id="L_ACeXXDgQ1vlwXF_tQs-13" value="admission control&lt;br&gt;&lt;br&gt;validation, mutation" style="ellipse;whiteSpace=wrap;html=1;aspect=fixed;dashed=1;fillColor=#f8cecc;strokeColor=#b85450;" vertex="1" parent="1">
          <mxGeometry x="600" y="360" width="80" height="80" as="geometry" />
        </mxCell>
        <mxCell id="L_ACeXXDgQ1vlwXF_tQs-14" value="&lt;font color=&quot;#009900&quot;&gt;deploy&lt;/font&gt;&lt;br&gt;&lt;font color=&quot;#7f00ff&quot;&gt;replicset&lt;/font&gt;&lt;br&gt;&lt;font color=&quot;#ff8000&quot;&gt;pod&lt;/font&gt; = runing&lt;br&gt;&lt;br&gt;&amp;lt;ctcd&amp;gt;" style="shape=cylinder3;whiteSpace=wrap;html=1;boundedLbl=1;backgroundOutline=1;size=15;" vertex="1" parent="1">
          <mxGeometry x="452.5" y="550" width="105" height="110" as="geometry" />
        </mxCell>
        <mxCell id="L_ACeXXDgQ1vlwXF_tQs-20" style="edgeStyle=orthogonalEdgeStyle;rounded=0;orthogonalLoop=1;jettySize=auto;html=1;entryX=1;entryY=1;entryDx=0;entryDy=0;dashed=1;exitX=0;exitY=0;exitDx=0;exitDy=0;" edge="1" parent="1" source="L_ACeXXDgQ1vlwXF_tQs-17" target="L_ACeXXDgQ1vlwXF_tQs-12">
          <mxGeometry relative="1" as="geometry">
            <Array as="points">
              <mxPoint x="612" y="460" />
              <mxPoint x="570" y="460" />
              <mxPoint x="570" y="438" />
            </Array>
          </mxGeometry>
        </mxCell>
        <mxCell id="L_ACeXXDgQ1vlwXF_tQs-17" value="controller manager" style="ellipse;whiteSpace=wrap;html=1;aspect=fixed;" vertex="1" parent="1">
          <mxGeometry x="600" y="460" width="80" height="80" as="geometry" />
        </mxCell>
        <mxCell id="L_ACeXXDgQ1vlwXF_tQs-18" value="controller manager" style="ellipse;whiteSpace=wrap;html=1;aspect=fixed;fillColor=#d5e8d4;strokeColor=#82b366;" vertex="1" parent="1">
          <mxGeometry x="610" y="470" width="80" height="80" as="geometry" />
        </mxCell>
        <mxCell id="L_ACeXXDgQ1vlwXF_tQs-19" value="controller manager" style="ellipse;whiteSpace=wrap;html=1;aspect=fixed;fillColor=#f8cecc;strokeColor=#b85450;" vertex="1" parent="1">
          <mxGeometry x="620" y="480" width="80" height="80" as="geometry" />
        </mxCell>
        <mxCell id="L_ACeXXDgQ1vlwXF_tQs-22" style="edgeStyle=orthogonalEdgeStyle;rounded=0;orthogonalLoop=1;jettySize=auto;html=1;entryX=0.705;entryY=0.955;entryDx=0;entryDy=0;entryPerimeter=0;dashed=1;" edge="1" parent="1" source="L_ACeXXDgQ1vlwXF_tQs-21" target="L_ACeXXDgQ1vlwXF_tQs-12">
          <mxGeometry relative="1" as="geometry">
            <Array as="points">
              <mxPoint x="580" y="610" />
              <mxPoint x="580" y="510" />
              <mxPoint x="521" y="510" />
            </Array>
          </mxGeometry>
        </mxCell>
        <mxCell id="0V60wXkmeHLknpVswIuG-1" value="http" style="edgeLabel;html=1;align=center;verticalAlign=middle;resizable=0;points=[];" vertex="1" connectable="0" parent="L_ACeXXDgQ1vlwXF_tQs-22">
          <mxGeometry x="0.2165" y="2" relative="1" as="geometry">
            <mxPoint x="1" y="-12" as="offset" />
          </mxGeometry>
        </mxCell>
        <mxCell id="L_ACeXXDgQ1vlwXF_tQs-21" value="scheduler" style="ellipse;whiteSpace=wrap;html=1;aspect=fixed;" vertex="1" parent="1">
          <mxGeometry x="610" y="570" width="80" height="80" as="geometry" />
        </mxCell>
        <mxCell id="L_ACeXXDgQ1vlwXF_tQs-23" value="" style="rounded=1;whiteSpace=wrap;html=1;verticalAlign=bottom;" vertex="1" parent="1">
          <mxGeometry x="445" y="720" width="245" height="150" as="geometry" />
        </mxCell>
        <mxCell id="L_ACeXXDgQ1vlwXF_tQs-24" value="" style="rounded=1;whiteSpace=wrap;html=1;verticalAlign=bottom;" vertex="1" parent="1">
          <mxGeometry x="455" y="730" width="245" height="150" as="geometry" />
        </mxCell>
        <mxCell id="L_ACeXXDgQ1vlwXF_tQs-25" value="" style="rounded=1;whiteSpace=wrap;html=1;verticalAlign=bottom;" vertex="1" parent="1">
          <mxGeometry x="465" y="740" width="245" height="150" as="geometry" />
        </mxCell>
        <mxCell id="L_ACeXXDgQ1vlwXF_tQs-26" value="" style="rounded=1;whiteSpace=wrap;html=1;verticalAlign=bottom;" vertex="1" parent="1">
          <mxGeometry x="475" y="750" width="245" height="150" as="geometry" />
        </mxCell>
        <mxCell id="L_ACeXXDgQ1vlwXF_tQs-27" value="Workers" style="rounded=1;whiteSpace=wrap;html=1;verticalAlign=bottom;" vertex="1" parent="1">
          <mxGeometry x="485" y="760" width="345" height="410" as="geometry" />
        </mxCell>
        <mxCell id="L_ACeXXDgQ1vlwXF_tQs-29" style="edgeStyle=orthogonalEdgeStyle;rounded=0;orthogonalLoop=1;jettySize=auto;html=1;entryX=0.055;entryY=0.705;entryDx=0;entryDy=0;entryPerimeter=0;" edge="1" parent="1" source="L_ACeXXDgQ1vlwXF_tQs-28" target="L_ACeXXDgQ1vlwXF_tQs-12">
          <mxGeometry relative="1" as="geometry">
            <Array as="points">
              <mxPoint x="310" y="825" />
              <mxPoint x="310" y="426" />
            </Array>
          </mxGeometry>
        </mxCell>
        <mxCell id="L_ACeXXDgQ1vlwXF_tQs-31" style="edgeStyle=orthogonalEdgeStyle;rounded=0;orthogonalLoop=1;jettySize=auto;html=1;entryX=0;entryY=0.5;entryDx=0;entryDy=0;" edge="1" parent="1" source="L_ACeXXDgQ1vlwXF_tQs-28" target="L_ACeXXDgQ1vlwXF_tQs-30">
          <mxGeometry relative="1" as="geometry" />
        </mxCell>
        <mxCell id="L_ACeXXDgQ1vlwXF_tQs-36" style="edgeStyle=orthogonalEdgeStyle;rounded=0;orthogonalLoop=1;jettySize=auto;html=1;entryX=0;entryY=0.5;entryDx=0;entryDy=0;" edge="1" parent="1" source="L_ACeXXDgQ1vlwXF_tQs-28" target="L_ACeXXDgQ1vlwXF_tQs-35">
          <mxGeometry relative="1" as="geometry" />
        </mxCell>
        <mxCell id="L_ACeXXDgQ1vlwXF_tQs-28" value="kubelet" style="ellipse;whiteSpace=wrap;html=1;aspect=fixed;" vertex="1" parent="1">
          <mxGeometry x="500" y="785" width="80" height="80" as="geometry" />
        </mxCell>
        <mxCell id="L_ACeXXDgQ1vlwXF_tQs-30" value="CRI" style="ellipse;whiteSpace=wrap;html=1;aspect=fixed;dashed=1;" vertex="1" parent="1">
          <mxGeometry x="620" y="785" width="80" height="80" as="geometry" />
        </mxCell>
        <mxCell id="L_ACeXXDgQ1vlwXF_tQs-33" style="edgeStyle=orthogonalEdgeStyle;rounded=0;orthogonalLoop=1;jettySize=auto;html=1;entryX=1;entryY=0.5;entryDx=0;entryDy=0;" edge="1" parent="1" source="L_ACeXXDgQ1vlwXF_tQs-32" target="L_ACeXXDgQ1vlwXF_tQs-30">
          <mxGeometry relative="1" as="geometry" />
        </mxCell>
        <mxCell id="L_ACeXXDgQ1vlwXF_tQs-32" value="containerd" style="ellipse;whiteSpace=wrap;html=1;aspect=fixed;fillColor=#fff2cc;strokeColor=#d6b656;" vertex="1" parent="1">
          <mxGeometry x="730" y="785" width="80" height="80" as="geometry" />
        </mxCell>
        <mxCell id="L_ACeXXDgQ1vlwXF_tQs-40" style="edgeStyle=orthogonalEdgeStyle;rounded=0;orthogonalLoop=1;jettySize=auto;html=1;entryX=0.5;entryY=0;entryDx=0;entryDy=0;" edge="1" parent="1" source="L_ACeXXDgQ1vlwXF_tQs-34" target="L_ACeXXDgQ1vlwXF_tQs-39">
          <mxGeometry relative="1" as="geometry">
            <Array as="points">
              <mxPoint x="670" y="1030" />
              <mxPoint x="670" y="1050" />
            </Array>
          </mxGeometry>
        </mxCell>
        <mxCell id="L_ACeXXDgQ1vlwXF_tQs-34" value="pause" style="shape=hexagon;perimeter=hexagonPerimeter2;whiteSpace=wrap;html=1;fixedSize=1;" vertex="1" parent="1">
          <mxGeometry x="557.5" y="1010" width="70" height="50" as="geometry" />
        </mxCell>
        <mxCell id="L_ACeXXDgQ1vlwXF_tQs-35" value="CNI" style="ellipse;whiteSpace=wrap;html=1;aspect=fixed;dashed=1;" vertex="1" parent="1">
          <mxGeometry x="620" y="910" width="80" height="80" as="geometry" />
        </mxCell>
        <mxCell id="L_ACeXXDgQ1vlwXF_tQs-38" style="edgeStyle=orthogonalEdgeStyle;rounded=0;orthogonalLoop=1;jettySize=auto;html=1;entryX=1;entryY=0.5;entryDx=0;entryDy=0;" edge="1" parent="1" source="L_ACeXXDgQ1vlwXF_tQs-37" target="L_ACeXXDgQ1vlwXF_tQs-35">
          <mxGeometry relative="1" as="geometry" />
        </mxCell>
        <mxCell id="L_ACeXXDgQ1vlwXF_tQs-37" value="calico" style="ellipse;whiteSpace=wrap;html=1;aspect=fixed;fillColor=#fff2cc;strokeColor=#d6b656;" vertex="1" parent="1">
          <mxGeometry x="730" y="910" width="80" height="80" as="geometry" />
        </mxCell>
        <mxCell id="L_ACeXXDgQ1vlwXF_tQs-42" style="edgeStyle=orthogonalEdgeStyle;rounded=0;orthogonalLoop=1;jettySize=auto;html=1;entryX=0;entryY=0.5;entryDx=0;entryDy=0;" edge="1" parent="1" source="L_ACeXXDgQ1vlwXF_tQs-39" target="L_ACeXXDgQ1vlwXF_tQs-41">
          <mxGeometry relative="1" as="geometry" />
        </mxCell>
        <mxCell id="L_ACeXXDgQ1vlwXF_tQs-39" value="init-containers" style="shape=hexagon;perimeter=hexagonPerimeter2;whiteSpace=wrap;html=1;fixedSize=1;" vertex="1" parent="1">
          <mxGeometry x="630" y="1050" width="70" height="50" as="geometry" />
        </mxCell>
        <mxCell id="L_ACeXXDgQ1vlwXF_tQs-41" value="containers" style="shape=hexagon;perimeter=hexagonPerimeter2;whiteSpace=wrap;html=1;fixedSize=1;" vertex="1" parent="1">
          <mxGeometry x="720" y="1050" width="70" height="50" as="geometry" />
        </mxCell>
      </root>
    </mxGraphModel>
  </diagram>
</mxfile>
